<svg width="174" height="173" viewBox="0 0 174 173" fill="none" xmlns="http://www.w3.org/2000/svg">
<g id="Frame" clip-path="url(#clip0_926_4293)">
<path id="Vector" d="M18.1952 134.481C36.1135 133.362 51.9654 123.821 65.7017 112.905C73.0521 107.064 79.8678 100.563 86.4539 93.8849C94.1387 86.0951 101.587 78.2659 107.406 68.9443C107.944 68.085 106.573 67.3044 106.035 68.1637C100.466 77.0851 93.3811 84.5371 86.0734 92.0219C80.0875 98.1521 73.8721 104.059 67.3056 109.57C53.4086 121.23 36.7596 131.745 18.1952 132.906C17.1883 132.969 17.1784 134.546 18.1952 134.481Z" fill="#404951"/>
<path id="Vector_2" d="M106.921 68.1963C108.118 63.8832 107.072 59.4848 107.757 55.1127C108.564 49.9632 110.338 45.3352 113.13 40.9237C119.158 31.3988 129.211 24.383 140.681 24.7995C141.698 24.8389 141.694 23.2613 140.681 23.2252C129.624 22.8218 120.814 28.6666 114.005 37.0435C110.627 41.1959 108.239 46.0502 106.878 51.2096C105.428 56.7002 106.898 62.4007 105.402 67.7929C105.133 68.7703 106.655 69.1705 106.924 68.1931L106.921 68.1963Z" fill="#404951"/>
<path id="Vector_3" d="M139.917 24.3698C136.899 33.5405 134.334 42.1798 127.984 49.6909C121.595 57.2478 113.097 62.2038 106.16 69.1081C105.441 69.8264 106.553 70.9383 107.272 70.22C110.984 66.5268 115.301 63.588 119.338 60.2654C123.615 56.7493 127.473 52.8199 130.982 48.5429C136.588 41.7108 138.736 32.9764 141.439 24.7634C141.754 23.7991 140.235 23.4022 139.917 24.3633L139.917 24.3698Z" fill="#404951"/>
<path id="Vector_4" d="M66.2856 112.328C74.6855 105.004 80.5139 95.1608 81.8357 83.9861C83.4593 70.2595 78.5427 57.8844 74.633 44.968C74.4493 44.3645 73.7737 44.2267 73.3145 44.6138C64.9769 51.5606 61.7921 62.3549 62.8679 72.9228C63.3402 77.5738 64.7506 82.2313 67.5418 86.0065C70.0837 89.4406 74.879 93.0419 75.6137 97.4239C75.7842 98.4276 77.3029 98.0176 77.1356 97.0238C76.6141 93.9111 73.9442 91.2741 71.9861 88.9552C68.5684 84.9077 66.2265 81.3392 64.9834 76.1077C62.3956 65.215 65.7477 52.9612 74.4264 45.7256C73.9868 45.6076 73.5473 45.4895 73.1111 45.3681C76.7617 57.4284 81.4159 69.0492 80.4844 81.8738C79.648 93.429 73.8032 103.682 65.1737 111.209C64.4062 111.879 65.5279 112.987 66.2856 112.321L66.2856 112.328Z" fill="#404951"/>
<path id="Vector_5" d="M66.7546 112.042C71.4646 108.979 76.109 105.843 81.2191 103.475C86.3391 101.104 91.8756 99.8706 97.176 97.988C98.1272 97.6469 97.7336 96.125 96.7758 96.4661C91.7608 98.2471 86.5884 99.5164 81.6685 101.557C76.0598 103.879 71.0382 107.385 65.9773 110.675C65.1245 111.226 65.9051 112.597 66.7546 112.042Z" fill="#404951"/>
<path id="Vector_6" d="M96.9759 97.7813C110.453 111.18 135.413 97.2663 143.869 84.2515C144.42 83.3988 143.049 82.6247 142.498 83.4709C134.603 95.6231 110.738 109.241 98.0845 96.6661C97.3662 95.9478 96.251 97.063 96.9726 97.778L96.9759 97.7813Z" fill="#404951"/>
<path id="Vector_7" d="M42.4142 127.291C55.0715 113.518 45.8614 95.2951 40.115 80.601C39.7476 79.6629 38.2257 80.0565 38.5931 81.0011C44.0771 95.013 53.461 112.951 41.3056 126.176C40.6201 126.92 41.732 128.039 42.4175 127.288L42.4142 127.291Z" fill="#404951"/>
<path id="Vector_8" d="M38.5177 79.968C25.5226 89.9258 27.7431 117.356 41.7484 125.47C42.6274 125.982 43.408 124.611 42.5257 124.103C29.3339 116.46 27.4774 90.3916 39.6296 81.0799C40.4331 80.4665 39.3114 79.3579 38.5177 79.968Z" fill="#404951"/>
<path id="Vector_9" d="M29.0518 133.09C40.174 134.372 51.2405 130.738 61.5395 126.94C62.4841 126.592 62.0905 125.064 61.1393 125.418C50.9519 129.177 40.0461 132.788 29.0485 131.519C28.0383 131.401 28.0481 132.978 29.0485 133.093L29.0518 133.09Z" fill="#404951"/>
<path id="Vector_10" d="M61.0639 126.458C66.0855 121.331 70.5265 115.611 77.6833 113.466C82.964 111.885 88.8318 113.18 94.1912 113.607C95.2047 113.689 95.1949 112.111 94.1912 112.033C88.1234 111.554 82.1506 110.488 76.191 112.275C69.3359 114.328 64.7407 120.459 59.952 125.352C59.2403 126.077 60.3555 127.192 61.0639 126.464L61.0639 126.458Z" fill="#404951"/>
<path id="Vector_11" d="M60.1193 126.583C73.1013 134.343 86.549 122.096 95.3064 113.371C96.0247 112.653 94.9128 111.541 94.1945 112.259C85.9816 120.446 73.1701 132.549 60.8999 125.218C60.0307 124.697 59.2501 126.068 60.1226 126.586L60.1193 126.583Z" fill="#404951"/>
<path id="Vector_12" d="M97.6712 97.6437C103.437 90.2573 108.941 83.0218 118.315 80.2863C126.909 77.7805 134.833 81.2441 142.705 84.3469C143.646 84.7175 144.036 83.1924 143.105 82.825C134.689 79.5057 127.02 76.5079 117.915 78.7644C108.282 81.1555 102.345 89.1126 96.5528 96.5318C95.9362 97.319 97.0415 98.444 97.6647 97.6437L97.6712 97.6437Z" fill="#404951"/>
<path id="Vector_13" d="M140.484 23.9466C133.55 28.5975 128.116 34.9704 123.12 41.5861C120.04 45.6696 117.17 49.8843 114.415 54.1941C113.044 56.3392 111.722 58.5203 110.41 60.6982C108.921 63.1647 108.292 66.0117 106.438 68.2716C106.12 68.6619 106.671 69.2195 106.996 68.8292C109.171 66.1757 110.115 62.7187 111.883 59.7831C114.52 55.4077 117.282 51.111 120.195 46.9127C125.928 38.6472 132.435 30.2834 140.875 24.6255C141.294 24.3435 140.904 23.658 140.484 23.94L140.484 23.9466Z" fill="#404951"/>
<path id="Vector_14" d="M73.6261 45.7648C72.0943 49.7827 71.9402 54.2205 71.0677 58.4188C70.2772 62.2333 69.8836 65.7298 70.8217 69.5476C73.0914 78.7839 78.9953 86.4852 75.8531 96.4299C75.699 96.9121 76.4632 97.1121 76.6141 96.6267C79.1331 88.663 76.0958 81.4275 73.1767 74.0608C71.2678 69.2393 70.6216 64.9721 71.5827 59.8324C72.4354 55.2733 72.7372 50.301 74.3903 45.9649C74.5707 45.4893 73.8064 45.2958 73.6261 45.7648Z" fill="#404951"/>
<path id="Vector_15" d="M97.3531 97.3253C111.991 95.0589 130.385 94.4882 142.209 84.2777C142.593 83.9465 142.032 83.3922 141.652 83.7202C129.979 93.7994 111.621 94.3209 97.153 96.5611C96.6512 96.6365 96.8578 97.4008 97.3498 97.322L97.3531 97.3253Z" fill="#404951"/>
<path id="Vector_16" d="M142.488 83.3299C134.626 83.9695 126.745 84.3992 119.027 86.108C110.929 87.9021 103.841 91.9528 97.3957 97.0859C96.9989 97.4041 97.5597 97.9518 97.9533 97.6435C104.352 92.5498 111.257 88.8008 119.227 86.8722C126.82 85.0322 134.738 84.7501 142.492 84.1204C142.997 84.081 143 83.2905 142.492 83.3332L142.488 83.3299Z" fill="#404951"/>
<path id="Vector_17" d="M38.6817 81.3586C38.1536 89.0894 36.9105 97.0105 37.8092 104.751C38.6161 111.678 42.6242 117.91 43.4146 124.782C43.4737 125.28 44.2608 125.287 44.2018 124.782C43.4573 118.343 40.1085 112.272 38.7899 105.909C37.1631 98.0437 38.931 89.2698 39.4689 81.3586C39.5049 80.8502 38.7145 80.8535 38.6817 81.3586Z" fill="#404951"/>
<path id="Vector_18" d="M61.9003 125.897C63.9503 123.722 66.6595 122.83 69.3556 121.728C72.7667 120.331 75.9318 118.569 79.5365 117.648C84.6729 116.336 89.7732 115.827 94.5225 113.295C94.9718 113.056 94.5782 112.374 94.1322 112.61C88.2119 115.762 81.511 115.811 75.3382 118.166C72.4026 119.284 69.6278 120.793 66.7087 121.954C64.6259 122.784 62.881 123.709 61.3394 125.343C60.9918 125.71 61.5461 126.271 61.897 125.9L61.9003 125.897Z" fill="#404951"/>
<path id="Vector_19" d="M38.6554 80.6635C33.6371 86.9347 32.8762 94.2096 33.214 101.993C33.3846 105.863 33.7421 109.848 35.5953 113.309C36.5169 115.024 38.0322 116.592 39.1441 118.163C40.6136 120.236 41.5024 122.647 42.7619 124.844C43.0145 125.287 43.7 124.897 43.4474 124.454C41.9518 121.85 40.8825 119.062 39.0326 116.661C35.6904 112.321 34.4702 108.727 34.0668 103.279C33.483 95.4002 34.0996 87.6005 39.2065 81.2211C39.5213 80.8275 38.967 80.2666 38.6489 80.6635L38.6554 80.6635Z" fill="#404951"/>
<path id="Vector_20" d="M140.858 24.0976C132.271 26.5707 125.229 31.7497 119.84 38.8508C113.376 47.3688 110.752 58.4287 106.744 68.1767C106.557 68.6391 107.236 69.036 107.429 68.567C110.824 60.3048 113.346 51.6228 117.63 43.7576C122.612 34.6098 131.071 27.7384 141.058 24.8619C141.547 24.7208 141.344 23.9599 140.861 24.1009L140.858 24.0976Z" fill="#404951"/>
<path id="Vector_21" d="M107.803 68.5604C110.289 64.3752 113.854 61.2363 117.02 57.6054C120.28 53.8597 123.189 49.7828 126.262 45.8829C128.726 42.7572 131.104 39.5789 133.298 36.2563C135.656 32.6845 138.713 29.0306 140.468 25.1308C140.674 24.6749 139.989 24.278 139.782 24.7405C138.231 28.1943 135.394 31.32 133.416 34.5967C130.628 39.2083 127.204 43.4263 123.871 47.6508C121.09 51.1735 118.43 54.7912 115.481 58.1794C112.585 61.502 109.397 64.3424 107.124 68.1701C106.865 68.6063 107.55 68.9966 107.81 68.5604L107.803 68.5604Z" fill="#404951"/>
</g>
<defs>
<clipPath id="clip0_926_4293">
<rect width="165.753" height="78.7389" fill="white" transform="translate(0.559021 117.205) rotate(-45)"/>
</clipPath>
</defs>
</svg>
